<mxfile host="65bd71144e">
    <diagram id="T5FOSTpQEARy2wl0DWaK" name="PÃ¡gina-1">
        <mxGraphModel dx="717" dy="1343" grid="0" gridSize="10" guides="1" tooltips="1" connect="1" arrows="1" fold="1" page="1" pageScale="1" pageWidth="827" pageHeight="1169" background="#ffffff" math="0" shadow="1">
            <root>
                <mxCell id="0"/>
                <mxCell id="1" parent="0"/>
                <mxCell id="5" value="" style="edgeStyle=none;html=1;fillColor=#b0e3e6;strokeColor=#0e8088;fontFamily=Helvetica;fontColor=#143F4D;fontStyle=0;fontSize=24;endArrow=none;endFill=0;" edge="1" parent="1" source="3" target="4">
                    <mxGeometry relative="1" as="geometry"/>
                </mxCell>
                <mxCell id="3" value="A" style="ellipse;whiteSpace=wrap;html=1;aspect=fixed;fillColor=#b0e3e6;strokeColor=#0e8088;fontFamily=Helvetica;fontColor=#143F4D;fontStyle=0;fontSize=24;" vertex="1" parent="1">
                    <mxGeometry x="440" y="40" width="40" height="40" as="geometry"/>
                </mxCell>
                <mxCell id="7" value="" style="edgeStyle=none;html=1;fillColor=#b0e3e6;strokeColor=#0e8088;fontFamily=Helvetica;fontColor=#143F4D;fontStyle=0;fontSize=24;endArrow=none;endFill=0;" edge="1" parent="1" source="4" target="6">
                    <mxGeometry relative="1" as="geometry"/>
                </mxCell>
                <mxCell id="13" value="" style="edgeStyle=none;html=1;fillColor=#b0e3e6;strokeColor=#0e8088;fontFamily=Helvetica;fontColor=#143F4D;fontStyle=0;fontSize=24;endArrow=none;endFill=0;" edge="1" parent="1" source="4" target="12">
                    <mxGeometry relative="1" as="geometry"/>
                </mxCell>
                <mxCell id="4" value="B" style="ellipse;whiteSpace=wrap;html=1;aspect=fixed;fillColor=#b0e3e6;strokeColor=#0e8088;fontFamily=Helvetica;fontColor=#143F4D;fontStyle=0;fontSize=24;" vertex="1" parent="1">
                    <mxGeometry x="240" y="80" width="40" height="40" as="geometry"/>
                </mxCell>
                <mxCell id="9" value="" style="edgeStyle=none;html=1;fillColor=#b0e3e6;strokeColor=#0e8088;fontFamily=Helvetica;fontColor=#143F4D;fontStyle=0;fontSize=24;endArrow=none;endFill=0;" edge="1" parent="1" source="6" target="8">
                    <mxGeometry relative="1" as="geometry"/>
                </mxCell>
                <mxCell id="6" value="C" style="ellipse;whiteSpace=wrap;html=1;aspect=fixed;fillColor=#b0e3e6;strokeColor=#0e8088;fontFamily=Helvetica;fontColor=#143F4D;fontStyle=0;fontSize=24;" vertex="1" parent="1">
                    <mxGeometry x="360" y="120" width="40" height="40" as="geometry"/>
                </mxCell>
                <mxCell id="11" value="" style="edgeStyle=none;html=1;fillColor=#b0e3e6;strokeColor=#0e8088;fontFamily=Helvetica;fontColor=#143F4D;fontStyle=0;fontSize=24;endArrow=none;endFill=0;" edge="1" parent="1" source="8" target="10">
                    <mxGeometry relative="1" as="geometry"/>
                </mxCell>
                <mxCell id="21" value="" style="edgeStyle=none;html=1;fillColor=#b0e3e6;strokeColor=#0e8088;fontFamily=Helvetica;fontColor=#143F4D;fontStyle=0;fontSize=24;endArrow=none;endFill=0;" edge="1" parent="1" source="8" target="20">
                    <mxGeometry relative="1" as="geometry"/>
                </mxCell>
                <mxCell id="8" value="D" style="ellipse;whiteSpace=wrap;html=1;aspect=fixed;fillColor=#b0e3e6;strokeColor=#0e8088;fontFamily=Helvetica;fontColor=#143F4D;fontStyle=0;fontSize=24;" vertex="1" parent="1">
                    <mxGeometry x="480" y="160" width="40" height="40" as="geometry"/>
                </mxCell>
                <mxCell id="25" value="" style="edgeStyle=none;html=1;fillColor=#b0e3e6;strokeColor=#0e8088;fontFamily=Helvetica;fontColor=#143F4D;fontStyle=0;fontSize=24;endArrow=none;endFill=0;" edge="1" parent="1" source="10" target="24">
                    <mxGeometry relative="1" as="geometry"/>
                </mxCell>
                <mxCell id="10" value="E" style="ellipse;whiteSpace=wrap;html=1;aspect=fixed;fillColor=#b0e3e6;strokeColor=#0e8088;fontFamily=Helvetica;fontColor=#143F4D;fontStyle=0;fontSize=24;" vertex="1" parent="1">
                    <mxGeometry x="600" y="200" width="40" height="40" as="geometry"/>
                </mxCell>
                <mxCell id="15" value="" style="edgeStyle=none;html=1;fillColor=#b0e3e6;strokeColor=#0e8088;fontFamily=Helvetica;fontColor=#143F4D;fontStyle=0;fontSize=24;endArrow=none;endFill=0;" edge="1" parent="1" source="12" target="14">
                    <mxGeometry relative="1" as="geometry"/>
                </mxCell>
                <mxCell id="12" value="F" style="ellipse;whiteSpace=wrap;html=1;aspect=fixed;fillColor=#b0e3e6;strokeColor=#0e8088;fontFamily=Helvetica;fontColor=#143F4D;fontStyle=0;fontSize=24;" vertex="1" parent="1">
                    <mxGeometry x="80" y="120" width="40" height="40" as="geometry"/>
                </mxCell>
                <mxCell id="17" value="" style="edgeStyle=none;html=1;fillColor=#b0e3e6;strokeColor=#0e8088;fontFamily=Helvetica;fontColor=#143F4D;fontStyle=0;fontSize=24;endArrow=none;endFill=0;" edge="1" parent="1" source="14" target="16">
                    <mxGeometry relative="1" as="geometry"/>
                </mxCell>
                <mxCell id="19" value="" style="edgeStyle=none;html=1;fillColor=#b0e3e6;strokeColor=#0e8088;fontFamily=Helvetica;fontColor=#143F4D;fontStyle=0;fontSize=24;endArrow=none;endFill=0;" edge="1" parent="1" source="14" target="18">
                    <mxGeometry relative="1" as="geometry"/>
                </mxCell>
                <mxCell id="14" value="G" style="ellipse;whiteSpace=wrap;html=1;aspect=fixed;fillColor=#b0e3e6;strokeColor=#0e8088;fontFamily=Helvetica;fontColor=#143F4D;fontStyle=0;fontSize=24;" vertex="1" parent="1">
                    <mxGeometry x="160" y="160" width="40" height="40" as="geometry"/>
                </mxCell>
                <mxCell id="16" value="H" style="ellipse;whiteSpace=wrap;html=1;aspect=fixed;fillColor=#b0e3e6;strokeColor=#0e8088;fontFamily=Helvetica;fontColor=#143F4D;fontStyle=0;fontSize=24;" vertex="1" parent="1">
                    <mxGeometry x="240" y="200" width="40" height="40" as="geometry"/>
                </mxCell>
                <mxCell id="18" value="L" style="ellipse;whiteSpace=wrap;html=1;aspect=fixed;fillColor=#b0e3e6;strokeColor=#0e8088;fontFamily=Helvetica;fontColor=#143F4D;fontStyle=0;fontSize=24;" vertex="1" parent="1">
                    <mxGeometry x="80" y="200" width="40" height="40" as="geometry"/>
                </mxCell>
                <mxCell id="23" value="" style="edgeStyle=none;html=1;fillColor=#b0e3e6;strokeColor=#0e8088;fontFamily=Helvetica;fontColor=#143F4D;fontStyle=0;fontSize=24;endArrow=none;endFill=0;" edge="1" parent="1" source="20" target="22">
                    <mxGeometry relative="1" as="geometry"/>
                </mxCell>
                <mxCell id="20" value="I" style="ellipse;whiteSpace=wrap;html=1;aspect=fixed;fillColor=#b0e3e6;strokeColor=#0e8088;fontFamily=Helvetica;fontColor=#143F4D;fontStyle=0;fontSize=24;" vertex="1" parent="1">
                    <mxGeometry x="400" y="200" width="40" height="40" as="geometry"/>
                </mxCell>
                <mxCell id="22" value="M" style="ellipse;whiteSpace=wrap;html=1;aspect=fixed;fillColor=#b0e3e6;strokeColor=#0e8088;fontFamily=Helvetica;fontColor=#143F4D;fontStyle=0;fontSize=24;" vertex="1" parent="1">
                    <mxGeometry x="320" y="240" width="40" height="40" as="geometry"/>
                </mxCell>
                <mxCell id="27" value="" style="edgeStyle=none;html=1;fillColor=#b0e3e6;strokeColor=#0e8088;fontFamily=Helvetica;fontColor=#143F4D;fontStyle=0;fontSize=24;endArrow=none;endFill=0;" edge="1" parent="1" source="24" target="26">
                    <mxGeometry relative="1" as="geometry"/>
                </mxCell>
                <mxCell id="24" value="J" style="ellipse;whiteSpace=wrap;html=1;aspect=fixed;fillColor=#b0e3e6;strokeColor=#0e8088;fontFamily=Helvetica;fontColor=#143F4D;fontStyle=0;fontSize=24;" vertex="1" parent="1">
                    <mxGeometry x="520" y="240" width="40" height="40" as="geometry"/>
                </mxCell>
                <mxCell id="29" value="" style="edgeStyle=none;html=1;fillColor=#b0e3e6;strokeColor=#0e8088;fontFamily=Helvetica;fontColor=#143F4D;fontStyle=0;fontSize=24;endArrow=none;endFill=0;" edge="1" parent="1" source="26" target="28">
                    <mxGeometry relative="1" as="geometry"/>
                </mxCell>
                <mxCell id="26" value="K" style="ellipse;whiteSpace=wrap;html=1;aspect=fixed;fillColor=#b0e3e6;strokeColor=#0e8088;fontFamily=Helvetica;fontColor=#143F4D;fontStyle=0;fontSize=24;" vertex="1" parent="1">
                    <mxGeometry x="600" y="280" width="40" height="40" as="geometry"/>
                </mxCell>
                <mxCell id="31" value="" style="edgeStyle=none;html=1;fillColor=#b0e3e6;strokeColor=#0e8088;fontFamily=Helvetica;fontColor=#143F4D;fontStyle=0;fontSize=24;endArrow=none;endFill=0;" edge="1" parent="1" source="28" target="30">
                    <mxGeometry relative="1" as="geometry"/>
                </mxCell>
                <mxCell id="28" value="N" style="ellipse;whiteSpace=wrap;html=1;aspect=fixed;fillColor=#b0e3e6;strokeColor=#0e8088;fontFamily=Helvetica;fontColor=#143F4D;fontStyle=0;fontSize=24;" vertex="1" parent="1">
                    <mxGeometry x="520" y="320" width="40" height="40" as="geometry"/>
                </mxCell>
                <mxCell id="30" value="O" style="ellipse;whiteSpace=wrap;html=1;aspect=fixed;fillColor=#b0e3e6;strokeColor=#0e8088;fontFamily=Helvetica;fontColor=#143F4D;fontStyle=0;fontSize=24;" vertex="1" parent="1">
                    <mxGeometry x="600" y="360" width="40" height="40" as="geometry"/>
                </mxCell>
            </root>
        </mxGraphModel>
    </diagram>
</mxfile>